<svg width="160" height="204" fill="none" xmlns="http://www.w3.org/2000/svg"><g filter="url(#filter0_d_1_528)"><g filter="url(#filter1_d_1_528)"><path d="M79.612 34.562c-22.282 0-40.31 17.245-40.31 38.496s40.31 82.153 40.31 82.153 40.31-60.902 40.31-82.153c0-21.25-18.028-38.496-40.31-38.496z" fill="#fff"/></g><g filter="url(#filter2_d_1_528)"><path d="M80 28.335c-26.353 0-47.674 19.915-47.674 44.457C32.326 97.333 80 167.665 80 167.665s47.675-70.332 47.675-94.873c0-24.542-21.322-44.457-47.675-44.457z" stroke="#fff" stroke-width="3" stroke-miterlimit="10" stroke-linejoin="round"/></g></g><defs><filter id="filter0_d_1_528" x="26" y="26" width="108" height="152" filterUnits="userSpaceOnUse" color-interpolation-filters="sRGB"><feFlood flood-opacity="0" result="BackgroundImageFix"/><feColorMatrix in="SourceAlpha" values="0 0 0 0 0 0 0 0 0 0 0 0 0 0 0 0 0 0 127 0" result="hardAlpha"/><feOffset dy="4"/><feGaussianBlur stdDeviation="2"/><feComposite in2="hardAlpha" operator="out"/><feColorMatrix values="0 0 0 0 0 0 0 0 0 0 0 0 0 0 0 0 0 0 0.25 0"/><feBlend in2="BackgroundImageFix" result="effect1_dropShadow_1_528"/><feBlend in="SourceGraphic" in2="effect1_dropShadow_1_528" result="shape"/></filter><filter id="filter1_d_1_528" x="9.302" y="8.562" width="140.62" height="180.648" filterUnits="userSpaceOnUse" color-interpolation-filters="sRGB"><feFlood flood-opacity="0" result="BackgroundImageFix"/><feColorMatrix in="SourceAlpha" values="0 0 0 0 0 0 0 0 0 0 0 0 0 0 0 0 0 0 127 0" result="hardAlpha"/><feOffset dy="4"/><feGaussianBlur stdDeviation="15"/><feColorMatrix values="0 0 0 0 1 0 0 0 0 1 0 0 0 0 1 0 0 0 0.5 0"/><feBlend in2="BackgroundImageFix" result="effect1_dropShadow_1_528"/><feBlend in="SourceGraphic" in2="effect1_dropShadow_1_528" result="shape"/></filter><filter id="filter2_d_1_528" x=".826" y=".835" width="158.349" height="202.33" filterUnits="userSpaceOnUse" color-interpolation-filters="sRGB"><feFlood flood-opacity="0" result="BackgroundImageFix"/><feColorMatrix in="SourceAlpha" values="0 0 0 0 0 0 0 0 0 0 0 0 0 0 0 0 0 0 127 0" result="hardAlpha"/><feOffset dy="4"/><feGaussianBlur stdDeviation="15"/><feColorMatrix values="0 0 0 0 0 0 0 0 0 0 0 0 0 0 0 0 0 0 0.5 0"/><feBlend in2="BackgroundImageFix" result="effect1_dropShadow_1_528"/><feBlend in="SourceGraphic" in2="effect1_dropShadow_1_528" result="shape"/></filter></defs></svg>