<svg width="118" height="15" fill="none" xmlns="http://www.w3.org/2000/svg"><path d="M7.272 14.054a6.37 6.37 0 01-2.502-.486 6.264 6.264 0 01-2.016-1.35 6.477 6.477 0 01-1.35-2.034A6.537 6.537 0 01.936 7.7c0-.888.162-1.716.486-2.484A6.264 6.264 0 012.772 3.2a6.125 6.125 0 012.016-1.368 6.503 6.503 0 012.52-.486c.9 0 1.734.162 2.502.486.78.312 1.452.756 2.016 1.332a6.029 6.029 0 011.332 2.016c.324.756.486 1.584.486 2.484 0 .9-.162 1.74-.486 2.52a6.328 6.328 0 01-3.384 3.384 6.37 6.37 0 01-2.502.486zm-.018-.666a5.74 5.74 0 002.25-.432 5.835 5.835 0 001.8-1.224 5.4 5.4 0 001.224-1.818 5.914 5.914 0 00.432-2.25c0-.804-.144-1.548-.432-2.232a5.35 5.35 0 00-1.188-1.8 5.123 5.123 0 00-1.8-1.188 5.693 5.693 0 00-2.232-.432c-.816 0-1.572.144-2.268.432a5.4 5.4 0 00-1.818 1.224A5.693 5.693 0 001.602 7.7c0 .792.144 1.536.432 2.232.288.684.684 1.29 1.188 1.818a5.584 5.584 0 001.8 1.206 5.78 5.78 0 002.232.432zm.18-1.944c-.72 0-1.362-.156-1.926-.468a3.549 3.549 0 01-1.332-1.332C3.852 9.08 3.69 8.432 3.69 7.7s.162-1.38.486-1.944a3.419 3.419 0 011.332-1.314c.564-.324 1.206-.486 1.926-.486a3.58 3.58 0 011.656.378c.504.24.906.576 1.206 1.008l-.774.576a2.357 2.357 0 00-.918-.774 2.774 2.774 0 00-1.188-.252c-.516 0-.978.12-1.386.36a2.56 2.56 0 00-.954.972c-.24.42-.36.912-.36 1.476s.12 1.056.36 1.476c.24.42.558.75.954.99.408.228.87.342 1.386.342.432 0 .828-.084 1.188-.252.36-.168.666-.426.918-.774l.774.558c-.3.444-.702.792-1.206 1.044-.492.24-1.044.36-1.656.36zM19.968 14v-.918l5.238-5.13c.48-.468.84-.876 1.08-1.224.24-.36.402-.696.486-1.008.084-.312.126-.606.126-.882 0-.732-.252-1.308-.756-1.728-.492-.42-1.224-.63-2.196-.63-.744 0-1.404.114-1.98.342a3.725 3.725 0 00-1.458 1.062l-.918-.792c.492-.576 1.122-1.02 1.89-1.332.768-.312 1.626-.468 2.574-.468.852 0 1.59.138 2.214.414.624.264 1.104.654 1.44 1.17.348.516.522 1.122.522 1.818 0 .408-.06.81-.18 1.206-.108.396-.312.816-.612 1.26-.288.432-.714.924-1.278 1.476l-4.806 4.716-.36-.504h7.812V14h-8.838zm15.45.108c-.971 0-1.835-.252-2.591-.756-.756-.516-1.35-1.248-1.782-2.196-.432-.96-.648-2.112-.648-3.456 0-1.344.216-2.49.648-3.438.432-.96 1.026-1.692 1.782-2.196.756-.516 1.62-.774 2.592-.774s1.836.258 2.592.774c.756.504 1.35 1.236 1.782 2.196.444.948.666 2.094.666 3.438 0 1.344-.222 2.496-.666 3.456-.432.948-1.026 1.68-1.782 2.196-.756.504-1.62.756-2.592.756zm0-1.188c.745 0 1.393-.198 1.945-.594.552-.408.984-.996 1.296-1.764.312-.78.468-1.734.468-2.862 0-1.128-.156-2.076-.468-2.844-.312-.78-.744-1.368-1.296-1.764-.552-.408-1.2-.612-1.944-.612-.72 0-1.362.204-1.926.612-.564.396-1.002.984-1.314 1.764-.312.768-.468 1.716-.468 2.844s.156 2.082.468 2.862c.312.768.75 1.356 1.314 1.764a3.27 3.27 0 001.926.594zM42.082 14v-.918l5.238-5.13c.48-.468.84-.876 1.08-1.224.24-.36.402-.696.486-1.008.084-.312.126-.606.126-.882 0-.732-.252-1.308-.756-1.728-.492-.42-1.224-.63-2.196-.63-.744 0-1.404.114-1.98.342a3.725 3.725 0 00-1.458 1.062l-.918-.792c.492-.576 1.122-1.02 1.89-1.332.768-.312 1.626-.468 2.574-.468.852 0 1.59.138 2.214.414.624.264 1.104.654 1.44 1.17.348.516.522 1.122.522 1.818 0 .408-.06.81-.18 1.206-.108.396-.312.816-.612 1.26-.288.432-.714.924-1.278 1.476l-4.806 4.716-.36-.504h7.812V14h-8.84zm12.66 0V1.94l.576.612h-3.546V1.4h4.266V14h-1.296zm10.135 0V1.4h5.13c1.344 0 2.52.27 3.528.81 1.02.528 1.812 1.266 2.376 2.214.564.948.846 2.04.846 3.276 0 1.236-.282 2.328-.846 3.276-.564.948-1.356 1.692-2.376 2.232-1.008.528-2.184.792-3.528.792h-5.13zm1.332-1.152h3.726c1.116 0 2.082-.216 2.898-.648.828-.444 1.47-1.05 1.926-1.818.456-.78.684-1.674.684-2.682 0-1.02-.228-1.914-.684-2.682a4.73 4.73 0 00-1.926-1.8c-.816-.444-1.782-.666-2.898-.666h-3.726v10.296zM79.478 14V4.55h1.277V14h-1.278zm.647-11.538a.905.905 0 01-.666-.27.884.884 0 01-.27-.648c0-.252.09-.462.27-.63.18-.18.402-.27.666-.27a.94.94 0 01.666.252c.18.168.27.378.27.63 0 .264-.09.486-.27.666-.168.18-.39.27-.666.27zm9.01 1.998c.768 0 1.44.15 2.016.45a3.057 3.057 0 011.368 1.332c.336.6.504 1.356.504 2.268V14h-1.278V8.636c0-.996-.252-1.746-.756-2.25-.492-.516-1.188-.774-2.088-.774-.672 0-1.26.138-1.764.414a2.779 2.779 0 00-1.152 1.17c-.264.504-.396 1.116-.396 1.836V14h-1.278V4.55h1.224v2.592l-.198-.486a3.39 3.39 0 011.44-1.602c.66-.396 1.446-.594 2.358-.594zM102.397 14v-2.088l-.054-.342V8.078c0-.804-.228-1.422-.684-1.854-.444-.432-1.11-.648-1.998-.648-.612 0-1.194.102-1.746.306a4.448 4.448 0 00-1.404.81l-.576-.954a4.99 4.99 0 011.728-.936 6.566 6.566 0 012.124-.342c1.224 0 2.166.306 2.826.918.672.6 1.008 1.518 1.008 2.754V14h-1.224zm-3.258.09c-.708 0-1.326-.114-1.854-.342-.516-.24-.912-.564-1.188-.972-.276-.42-.414-.9-.414-1.44 0-.492.114-.936.342-1.332.24-.408.624-.732 1.152-.972.54-.252 1.26-.378 2.16-.378h3.258v.954h-3.222c-.912 0-1.548.162-1.908.486a1.581 1.581 0 00-.522 1.206c0 .54.21.972.63 1.296.42.324 1.008.486 1.764.486.72 0 1.338-.162 1.854-.486.528-.336.912-.816 1.152-1.44l.288.882c-.24.624-.66 1.122-1.26 1.494-.588.372-1.332.558-2.232.558zm9.376-3.222l-.054-1.62 7.632-7.848h1.53l-5.562 5.832-.756.81-2.79 2.826zM107.363 14V1.4h1.332V14h-1.332zm9.054 0l-5.436-6.264.9-.972 6.12 7.236h-1.584z" fill="#fff"/></svg>