<svg width="123" height="18" fill="none" xmlns="http://www.w3.org/2000/svg"><path d="M7.272 14.054a6.37 6.37 0 01-2.502-.486 6.264 6.264 0 01-2.016-1.35 6.477 6.477 0 01-1.35-2.034A6.537 6.537 0 01.936 7.7c0-.888.162-1.716.486-2.484A6.264 6.264 0 012.772 3.2a6.125 6.125 0 012.016-1.368 6.503 6.503 0 012.52-.486c.9 0 1.734.162 2.502.486.78.312 1.452.756 2.016 1.332a6.029 6.029 0 011.332 2.016c.324.756.486 1.584.486 2.484 0 .9-.162 1.74-.486 2.52a6.328 6.328 0 01-3.384 3.384 6.37 6.37 0 01-2.502.486zm-.018-.666a5.74 5.74 0 002.25-.432 5.835 5.835 0 001.8-1.224 5.4 5.4 0 001.224-1.818 5.914 5.914 0 00.432-2.25c0-.804-.144-1.548-.432-2.232a5.35 5.35 0 00-1.188-1.8 5.123 5.123 0 00-1.8-1.188 5.693 5.693 0 00-2.232-.432c-.816 0-1.572.144-2.268.432a5.4 5.4 0 00-1.818 1.224A5.693 5.693 0 001.602 7.7c0 .792.144 1.536.432 2.232.288.684.684 1.29 1.188 1.818a5.584 5.584 0 001.8 1.206 5.78 5.78 0 002.232.432zm.18-1.944c-.72 0-1.362-.156-1.926-.468a3.549 3.549 0 01-1.332-1.332C3.852 9.08 3.69 8.432 3.69 7.7s.162-1.38.486-1.944a3.419 3.419 0 011.332-1.314c.564-.324 1.206-.486 1.926-.486a3.58 3.58 0 011.656.378c.504.24.906.576 1.206 1.008l-.774.576a2.357 2.357 0 00-.918-.774 2.774 2.774 0 00-1.188-.252c-.516 0-.978.12-1.386.36a2.56 2.56 0 00-.954.972c-.24.42-.36.912-.36 1.476s.12 1.056.36 1.476c.24.42.558.75.954.99.408.228.87.342 1.386.342.432 0 .828-.084 1.188-.252.36-.168.666-.426.918-.774l.774.558c-.3.444-.702.792-1.206 1.044-.492.24-1.044.36-1.656.36zM24.324 14V9.32l.306.828L19.284 1.4h1.422l4.698 7.686h-.756L29.346 1.4h1.332l-5.346 8.748.306-.828V14h-1.314zm11.091.09c-.984 0-1.848-.204-2.592-.612a4.597 4.597 0 01-1.746-1.71c-.42-.732-.63-1.566-.63-2.502 0-.936.198-1.764.594-2.484.408-.72.96-1.284 1.656-1.692.708-.42 1.5-.63 2.376-.63.888 0 1.674.204 2.358.612.696.396 1.242.96 1.638 1.692.396.72.594 1.554.594 2.502 0 .06-.006.126-.018.198v.198H31.42v-.954h7.542l-.504.378c0-.684-.15-1.29-.45-1.818a3.166 3.166 0 00-1.188-1.26c-.504-.3-1.086-.45-1.746-.45-.648 0-1.23.15-1.746.45-.516.3-.918.72-1.206 1.26-.288.54-.432 1.158-.432 1.854v.198c0 .72.156 1.356.468 1.908.324.54.768.966 1.332 1.278.576.3 1.23.45 1.962.45.576 0 1.11-.102 1.602-.306a3.332 3.332 0 001.296-.936l.72.828c-.42.504-.948.888-1.584 1.152a5.26 5.26 0 01-2.07.396zm18.657-9.63c.768 0 1.434.15 1.998.45a2.98 2.98 0 011.332 1.332c.324.6.486 1.356.486 2.268V14H56.61V8.636c0-.996-.24-1.746-.72-2.25-.468-.516-1.134-.774-1.998-.774-.648 0-1.212.138-1.692.414a2.73 2.73 0 00-1.098 1.17c-.252.504-.378 1.116-.378 1.836V14h-1.278V8.636c0-.996-.24-1.746-.72-2.25-.48-.516-1.152-.774-2.016-.774-.636 0-1.194.138-1.674.414a2.7 2.7 0 00-1.116 1.17c-.252.504-.378 1.116-.378 1.836V14h-1.278V4.55h1.224v2.556l-.198-.45a3.342 3.342 0 011.386-1.602c.648-.396 1.41-.594 2.286-.594.924 0 1.71.234 2.358.702.648.456 1.068 1.146 1.26 2.07l-.504-.198a3.693 3.693 0 011.458-1.854c.708-.48 1.554-.72 2.538-.72zM66.335 14V1.4h5.13c1.344 0 2.52.27 3.528.81 1.02.528 1.812 1.266 2.376 2.214.564.948.846 2.04.846 3.276 0 1.236-.282 2.328-.846 3.276-.564.948-1.356 1.692-2.376 2.232-1.008.528-2.184.792-3.528.792h-5.13zm1.332-1.152h3.726c1.116 0 2.082-.216 2.898-.648.828-.444 1.47-1.05 1.926-1.818.456-.78.684-1.674.684-2.682 0-1.02-.228-1.914-.684-2.682a4.73 4.73 0 00-1.926-1.8c-.816-.444-1.782-.666-2.898-.666h-3.726v10.296zM80.937 14V4.55h1.277V14h-1.278zm.647-11.538a.905.905 0 01-.666-.27.884.884 0 01-.27-.648c0-.252.09-.462.27-.63.18-.18.402-.27.666-.27a.94.94 0 01.666.252c.18.168.27.378.27.63 0 .264-.09.486-.27.666-.168.18-.39.27-.666.27zm8.218 15.12a8.143 8.143 0 01-2.484-.378c-.792-.252-1.434-.612-1.926-1.08l.648-.972c.444.396.99.708 1.638.936.66.24 1.356.36 2.088.36 1.2 0 2.082-.282 2.646-.846.564-.552.846-1.416.846-2.592v-2.358l.18-1.62-.126-1.62V4.55h1.224v8.298c0 1.632-.402 2.826-1.206 3.582-.792.768-1.968 1.152-3.528 1.152zm-.234-3.942c-.9 0-1.71-.192-2.43-.576a4.486 4.486 0 01-1.71-1.638c-.408-.696-.612-1.494-.612-2.394 0-.9.204-1.692.612-2.376.42-.696.99-1.236 1.71-1.62.72-.384 1.53-.576 2.43-.576.84 0 1.596.174 2.268.522a3.898 3.898 0 011.602 1.548c.396.684.594 1.518.594 2.502 0 .984-.198 1.818-.594 2.502a4.019 4.019 0 01-1.602 1.566c-.672.36-1.428.54-2.268.54zm.126-1.134c.696 0 1.314-.144 1.854-.432.54-.3.966-.708 1.278-1.224.312-.528.468-1.134.468-1.818 0-.684-.156-1.284-.468-1.8a3.254 3.254 0 00-1.278-1.206c-.54-.3-1.158-.45-1.854-.45-.684 0-1.302.15-1.854.45-.54.288-.966.69-1.278 1.206-.3.516-.45 1.116-.45 1.8 0 .684.15 1.29.45 1.818.312.516.738.924 1.278 1.224.552.288 1.17.432 1.854.432zM98.092 14V4.55h1.279V14h-1.278zm.648-11.538a.905.905 0 01-.665-.27.884.884 0 01-.27-.648c0-.252.09-.462.27-.63.18-.18.401-.27.665-.27a.94.94 0 01.666.252c.18.168.27.378.27.63 0 .264-.09.486-.27.666-.168.18-.39.27-.666.27zm7.175 11.628c-.888 0-1.572-.24-2.052-.72s-.72-1.158-.72-2.034V2.462h1.278v8.802c0 .552.138.978.414 1.278.288.3.696.45 1.224.45.564 0 1.032-.162 1.404-.486l.45.918a2.354 2.354 0 01-.918.504 3.623 3.623 0 01-1.08.162zm-4.464-8.478V4.55h5.85v1.062h-5.85zM116.161 14v-2.088l-.054-.342V8.078c0-.804-.228-1.422-.684-1.854-.444-.432-1.11-.648-1.998-.648-.612 0-1.194.102-1.746.306a4.448 4.448 0 00-1.404.81l-.576-.954a4.99 4.99 0 011.728-.936 6.566 6.566 0 012.124-.342c1.224 0 2.166.306 2.826.918.672.6 1.008 1.518 1.008 2.754V14h-1.224zm-3.258.09c-.708 0-1.326-.114-1.854-.342-.516-.24-.912-.564-1.188-.972-.276-.42-.414-.9-.414-1.44 0-.492.114-.936.342-1.332.24-.408.624-.732 1.152-.972.54-.252 1.26-.378 2.16-.378h3.258v.954h-3.222c-.912 0-1.548.162-1.908.486a1.581 1.581 0 00-.522 1.206c0 .54.21.972.63 1.296.42.324 1.008.486 1.764.486.72 0 1.338-.162 1.854-.486.528-.336.912-.816 1.152-1.44l.288.882c-.24.624-.66 1.122-1.26 1.494-.588.372-1.332.558-2.232.558zm7.953-.09V.644h1.278V14h-1.278z" fill="#fff"/></svg>