<svg width="103" height="15" fill="none" xmlns="http://www.w3.org/2000/svg"><path d="M7.272 14.054a6.37 6.37 0 01-2.502-.486 6.264 6.264 0 01-2.016-1.35 6.477 6.477 0 01-1.35-2.034A6.537 6.537 0 01.936 7.7c0-.888.162-1.716.486-2.484A6.264 6.264 0 012.772 3.2a6.125 6.125 0 012.016-1.368 6.503 6.503 0 012.52-.486c.9 0 1.734.162 2.502.486.78.312 1.452.756 2.016 1.332a6.029 6.029 0 011.332 2.016c.324.756.486 1.584.486 2.484 0 .9-.162 1.74-.486 2.52a6.328 6.328 0 01-3.384 3.384 6.37 6.37 0 01-2.502.486zm-.018-.666a5.74 5.74 0 002.25-.432 5.835 5.835 0 001.8-1.224 5.4 5.4 0 001.224-1.818 5.914 5.914 0 00.432-2.25c0-.804-.144-1.548-.432-2.232a5.35 5.35 0 00-1.188-1.8 5.123 5.123 0 00-1.8-1.188 5.693 5.693 0 00-2.232-.432c-.816 0-1.572.144-2.268.432a5.4 5.4 0 00-1.818 1.224A5.693 5.693 0 001.602 7.7c0 .792.144 1.536.432 2.232.288.684.684 1.29 1.188 1.818a5.584 5.584 0 001.8 1.206 5.78 5.78 0 002.232.432zm.18-1.944c-.72 0-1.362-.156-1.926-.468a3.549 3.549 0 01-1.332-1.332C3.852 9.08 3.69 8.432 3.69 7.7s.162-1.38.486-1.944a3.419 3.419 0 011.332-1.314c.564-.324 1.206-.486 1.926-.486a3.58 3.58 0 011.656.378c.504.24.906.576 1.206 1.008l-.774.576a2.357 2.357 0 00-.918-.774 2.774 2.774 0 00-1.188-.252c-.516 0-.978.12-1.386.36a2.56 2.56 0 00-.954.972c-.24.42-.36.912-.36 1.476s.12 1.056.36 1.476c.24.42.558.75.954.99.408.228.87.342 1.386.342.432 0 .828-.084 1.188-.252.36-.168.666-.426.918-.774l.774.558c-.3.444-.702.792-1.206 1.044-.492.24-1.044.36-1.656.36zM21.318 14V1.4h4.716c1.068 0 1.986.174 2.754.522.768.336 1.356.828 1.764 1.476.42.636.63 1.41.63 2.322 0 .888-.21 1.656-.63 2.304-.408.636-.996 1.128-1.764 1.476-.768.336-1.686.504-2.754.504h-3.978l.594-.612V14h-1.332zm8.604 0l-3.24-4.572h1.44L31.38 14h-1.458zM22.65 9.5l-.594-.63h3.942c1.26 0 2.214-.276 2.862-.828.66-.552.99-1.326.99-2.322 0-1.008-.33-1.788-.99-2.34-.648-.552-1.602-.828-2.862-.828h-3.942l.594-.63V9.5zm15.15 4.608c-.937 0-1.837-.15-2.7-.45-.853-.312-1.513-.708-1.98-1.188l.521-1.026c.444.432 1.038.798 1.782 1.098a6.618 6.618 0 002.376.432c.792 0 1.434-.096 1.926-.288.504-.204.87-.474 1.098-.81.24-.336.36-.708.36-1.116 0-.492-.144-.888-.432-1.188-.276-.3-.642-.534-1.098-.702-.456-.18-.96-.336-1.512-.468a83.43 83.43 0 01-1.656-.414 7.542 7.542 0 01-1.53-.612 3.293 3.293 0 01-1.116-.99c-.276-.42-.414-.966-.414-1.638 0-.624.162-1.194.486-1.71.336-.528.846-.948 1.53-1.26.684-.324 1.56-.486 2.628-.486.708 0 1.41.102 2.106.306.696.192 1.296.462 1.8.81l-.45 1.062a5.927 5.927 0 00-1.728-.792 6.464 6.464 0 00-1.746-.252c-.756 0-1.38.102-1.872.306-.492.204-.858.48-1.098.828-.228.336-.342.72-.342 1.152 0 .492.138.888.414 1.188.288.3.66.534 1.116.702.468.168.978.318 1.53.45s1.098.276 1.638.432c.552.156 1.056.36 1.512.612.468.24.84.564 1.116.972.288.408.432.942.432 1.602 0 .612-.168 1.182-.504 1.71-.336.516-.852.936-1.548 1.26-.684.312-1.566.468-2.646.468zm11.074 0c-.936 0-1.836-.15-2.7-.45-.852-.312-1.512-.708-1.98-1.188l.522-1.026c.444.432 1.038.798 1.782 1.098a6.618 6.618 0 002.376.432c.792 0 1.434-.096 1.926-.288.504-.204.87-.474 1.098-.81.24-.336.36-.708.36-1.116 0-.492-.144-.888-.432-1.188-.276-.3-.642-.534-1.098-.702-.456-.18-.96-.336-1.512-.468a83.43 83.43 0 01-1.656-.414 7.542 7.542 0 01-1.53-.612 3.293 3.293 0 01-1.116-.99c-.276-.42-.414-.966-.414-1.638 0-.624.162-1.194.486-1.71.336-.528.846-.948 1.53-1.26.684-.324 1.56-.486 2.628-.486.708 0 1.41.102 2.106.306.696.192 1.296.462 1.8.81L52.6 3.47a5.927 5.927 0 00-1.728-.792 6.464 6.464 0 00-1.746-.252c-.756 0-1.38.102-1.872.306-.492.204-.858.48-1.098.828-.228.336-.342.72-.342 1.152 0 .492.138.888.414 1.188.288.3.66.534 1.116.702.468.168.978.318 1.53.45s1.098.276 1.638.432c.552.156 1.056.36 1.512.612.468.24.84.564 1.116.972.288.408.432.942.432 1.602 0 .612-.168 1.182-.504 1.71-.336.516-.852.936-1.548 1.26-.684.312-1.566.468-2.646.468zm11.254-.018c-.936 0-1.776-.204-2.52-.612a4.634 4.634 0 01-1.728-1.71c-.42-.732-.63-1.566-.63-2.502 0-.948.21-1.782.63-2.502.42-.72.996-1.284 1.728-1.692.744-.408 1.584-.612 2.52-.612.804 0 1.53.156 2.178.468a3.53 3.53 0 011.53 1.404l-.954.648a2.999 2.999 0 00-1.206-1.062 3.603 3.603 0 00-1.566-.342c-.672 0-1.278.156-1.818.468-.54.3-.966.726-1.278 1.278-.312.552-.468 1.2-.468 1.944s.156 1.392.468 1.944a3.4 3.4 0 001.278 1.296c.54.3 1.146.45 1.818.45.564 0 1.086-.114 1.566-.342.48-.228.882-.576 1.206-1.044l.954.648a3.679 3.679 0 01-1.53 1.404c-.648.312-1.374.468-2.178.468zM71.03 4.46c.768 0 1.44.15 2.016.45a3.057 3.057 0 011.368 1.332c.336.6.504 1.356.504 2.268V14H73.64V8.636c0-.996-.252-1.746-.756-2.25-.492-.516-1.188-.774-2.088-.774-.672 0-1.26.138-1.764.414a2.779 2.779 0 00-1.152 1.17c-.264.504-.396 1.116-.396 1.836V14h-1.278V.644h1.278v6.498l-.252-.486a3.39 3.39 0 011.44-1.602c.66-.396 1.446-.594 2.358-.594zm11.192 9.63c-.912 0-1.734-.204-2.466-.612-.72-.42-1.29-.99-1.71-1.71-.42-.732-.63-1.566-.63-2.502 0-.948.21-1.782.63-2.502.42-.72.99-1.284 1.71-1.692.72-.408 1.542-.612 2.466-.612.936 0 1.764.204 2.484.612a4.374 4.374 0 011.71 1.692c.42.72.63 1.554.63 2.502 0 .936-.21 1.77-.63 2.502a4.5 4.5 0 01-1.71 1.71c-.732.408-1.56.612-2.484.612zm0-1.134c.684 0 1.29-.15 1.818-.45a3.31 3.31 0 001.242-1.296c.312-.564.468-1.212.468-1.944 0-.744-.156-1.392-.468-1.944a3.185 3.185 0 00-1.242-1.278c-.528-.312-1.128-.468-1.8-.468-.672 0-1.272.156-1.8.468-.528.3-.948.726-1.26 1.278-.312.552-.468 1.2-.468 1.944 0 .732.156 1.38.468 1.944a3.44 3.44 0 001.26 1.296c.528.3 1.122.45 1.782.45zm11.285 1.134c-.912 0-1.734-.204-2.466-.612-.72-.42-1.29-.99-1.71-1.71-.42-.732-.63-1.566-.63-2.502 0-.948.21-1.782.63-2.502.42-.72.99-1.284 1.71-1.692.72-.408 1.542-.612 2.466-.612.936 0 1.764.204 2.484.612a4.374 4.374 0 011.71 1.692c.42.72.63 1.554.63 2.502 0 .936-.21 1.77-.63 2.502a4.5 4.5 0 01-1.71 1.71c-.732.408-1.56.612-2.484.612zm0-1.134c.684 0 1.29-.15 1.818-.45a3.31 3.31 0 001.242-1.296c.312-.564.468-1.212.468-1.944 0-.744-.156-1.392-.468-1.944a3.185 3.185 0 00-1.242-1.278c-.528-.312-1.128-.468-1.8-.468-.672 0-1.272.156-1.8.468-.528.3-.948.726-1.26 1.278-.312.552-.468 1.2-.468 1.944 0 .732.156 1.38.468 1.944a3.44 3.44 0 001.26 1.296c.528.3 1.122.45 1.782.45zM100.94 14V.644h1.278V14h-1.278z" fill="#fff"/></svg>