<svg width="141" height="182" fill="none" xmlns="http://www.w3.org/2000/svg"><g filter="url(#filter0_d_1_527)"><path d="M70.612 26.562c-22.282 0-40.31 17.245-40.31 38.496s40.31 82.153 40.31 82.153 40.31-60.902 40.31-82.153c0-21.25-18.028-38.496-40.31-38.496z" fill="#F58021"/><path fill-rule="evenodd" clip-rule="evenodd" d="M79.058 62.393c1.255-1.532 1.975-3.225 2.006-5.19.004-.213.155-.424.306-.634.072-.1.143-.199.198-.298.293-.532.606-1.058.918-1.583.71-1.195 1.421-2.392 1.912-3.675 1.071-2.798.425-4.515-1.9-6.301.147-1.872.885-3.157 2.94-3.528.973-.174 1.916-.511 2.947-.88.468-.167.955-.342 1.47-.51-1.544 4.677-3.008 9.107-4.54 13.74l.358-.076.002-.001c1.993-.427 3.817-.817 5.657-1.208.468.834.105 1.273-.602 1.674l-.423.238c-1.81 1.02-3.627 2.043-5.373 3.172-.585.377-1.09 1.057-1.354 1.706-.434 1.075-.788 2.184-1.15 3.322v.001c-.156.49-.314.984-.48 1.483l-2.892-1.452zm5.346-.246c1.803 1.347 2.56 4.244 1.736 6.456-.72 1.921-2.388 2.836-4.873 2.551-.715-.083-1.419-.242-2.122-.401a29.637 29.637 0 00-1.342-.284c-2.56-.476-4.75-.118-6.239 1.031l1.089.136c-.385.727-.58 1.515-.77 2.278-.274 1.106-.536 2.16-1.34 2.905.458.322.947.639 1.448.963 1.153.746 2.364 1.53 3.394 2.503 2.393 2.261 2.245 5.64-.105 8.143l-2.118-.75h-.002c-2.685-.95-5.382-1.904-8.075-2.877-.446-.162-.872-.383-1.298-.605-.19-.098-.38-.197-.572-.29-2.787-1.341-4.233-3.59-4.48-6.66-.313-3.886.444-7.63 1.336-11.337.06-.012.11-.027.153-.04.068-.02.114-.034.148-.015 6.042 3.126 11.604 1.71 16.865-1.91.892-.61 1.569-.642 2.424-.19.504.265 1.015.518 1.532.753 1.483.673 2.153.408 2.75-1.1.1-.252.191-.51.285-.772.058-.161.116-.324.177-.488zM78.2 75.312l1.247-3.795c-.458-.015-.902-.03-1.335-.046h-.002a99.148 99.148 0 00-3.918-.09c-.27 0-.683.334-.781.606-.4 1.127-.76 2.267-1.106 3.366-.123.39-.244.773-.365 1.15l1.214.89c1.178.864 2.324 1.704 3.518 2.576l1.527-4.652v-.002l.001-.003zM65.904 93.71c.775-2.311 1.495-4.455 2.258-6.722 1.901.6 3.698 1.168 5.617 1.78-.104.321-.205.638-.305.951-.38 1.187-.741 2.313-1.14 3.428-.087.235-.438.532-.671.538-1.418.033-2.843.03-4.35.026l-1.41-.001zm-8.456-39.257c.563.87 1.11 1.716 1.503 2.629.726 1.699 1.04 3.614-.387 5.072-1.465 1.489-3.286.828-4.91.11a10.68 10.68 0 01-2.677-1.68c-2.996-2.625-2.7-6.634.628-8.834 2.19-1.446 4.596-1.668 7.02-.797 1.052.377 1.643.099 2.467-.525 1.385-1.044 2.874-2.039 4.461-2.712 2.904-1.236 5.74-.859 8.325 1.032.572.42 1.15.828 1.888 1.05a438.736 438.736 0 00-1.58-1.903c1.931-1.767 4.054-2.805 6.669-2.366 1.852.309 2.848 1.557 2.805 3.435-.049 2.267-1.181 4.084-2.418 5.9-2.393-2.373-3.088-5.159-1.883-7.253-1.168.247-1.771.97-1.52 2.261.247 1.267.653 2.54 1.207 3.7 1.563 3.293 1.076 6.537-1.723 8.854-3.796 3.15-8.195 4.034-12.957 2.823-.917-.235-1.79-.772-2.585-1.322-.94-.649-1.378-1.495-1.23-2.811.148-1.378-.05-2.86-.4-4.22-.468-1.779-1.723-2.984-3.47-3.657.25.416.51.817.767 1.214zM74.73 62.98a3.43 3.43 0 00.035-.17c.05-.287.07-.59.089-.885l.025-.36c-.067-1.81-.584-3.423-1.925-4.646-1.182-1.075-2.344-.723-2.726.827l-.014.058a6.25 6.25 0 00-.057.272c-.31 1.637.078 3.175 1.006 4.576l.031.047c.108.162.218.328.334.49.498.693 1.102 1.296 2.032 1.057.03-.007.059-.016.089-.025.674-.205.952-.682 1.081-1.241zm-6.641-5.13c-.282-.261-.498-.461-.66-.424-.25.056-.454.305-.66.555a4.347 4.347 0 01-.27.31c.09.083.18.184.268.285.201.23.403.46.625.48.195.021.413-.16.697-.395.144-.12.305-.254.49-.383-.182-.143-.345-.294-.49-.428zm8.55-1.981a9.31 9.31 0 01-.563-.385c-.305-.22-.519-.373-.729-.37l-.016.002c-.273.018-.759.502-.722.685.067.327.436.772.738.828a.31.31 0 00.086.002c.134-.013.287-.11.478-.248l.158-.116c.162-.12.35-.259.57-.398z" fill="#20113D"/></g><defs><filter id="filter0_d_1_527" x="-9" y="-8" width="160" height="204" filterUnits="userSpaceOnUse" color-interpolation-filters="sRGB"><feFlood flood-opacity="0" result="BackgroundImageFix"/><feColorMatrix in="SourceAlpha" values="0 0 0 0 0 0 0 0 0 0 0 0 0 0 0 0 0 0 127 0" result="hardAlpha"/><feOffset dy="4"/><feGaussianBlur stdDeviation="15"/><feColorMatrix values="0 0 0 0 0.960784 0 0 0 0 0.501961 0 0 0 0 0.129412 0 0 0 0.7 0"/><feBlend in2="BackgroundImageFix" result="effect1_dropShadow_1_527"/><feBlend in="SourceGraphic" in2="effect1_dropShadow_1_527" result="shape"/></filter></defs></svg>