<svg width="160" height="204" fill="none" xmlns="http://www.w3.org/2000/svg"><g filter="url(#filter0_d_1_528)"><g filter="url(#filter1_d_1_528)"><path d="M79.612 34.562c-22.282 0-40.31 17.245-40.31 38.496s40.31 82.153 40.31 82.153 40.31-60.902 40.31-82.153c0-21.25-18.028-38.496-40.31-38.496z" fill="#fff"/></g><path d="M70.023 94.553c3.261-.772 5.324-2.937 7.413-5.238-.284-.08-.5-.148-.715-.203-2.87-.73-5.512-1.975-7.938-3.667a12.33 12.33 0 01-3.653-3.952 5.534 5.534 0 01-.31-.636c-.027-.054-.027-.121-.053-.311.916.284 1.779.555 2.628.825l.067-.067c-.094-.081-.175-.163-.27-.23-1.105-.718-2.183-1.462-3.302-2.138-1.28-.785-2.628-1.462-3.868-2.274-1.657-1.096-2.83-2.639-3.68-4.425-.04-.081-.053-.163-.066-.244-.014-.04 0-.095 0-.216 1.374.595 2.655 1.434 4.245 1.285-3.127-1.8-5.068-4.317-4.933-8.106a1058.33 1058.33 0 013.95 4.398l.094-.095c-.54-1.055-1.173-2.084-1.577-3.193a15.459 15.459 0 01-.81-3.492c-.134-1.177-.026-2.382-.026-3.573.067-.013.135-.013.189-.027.633 1.435 1.267 2.87 1.9 4.317.067 0 .135-.013.202-.013-.027-2.612.256-5.17 1.456-7.511a.65.65 0 01.161.014c0 .581.027 1.15 0 1.732-.148 2.855.944 5.291 2.575 7.51 1.091 1.476 2.44 2.707 3.895 3.817 1.914 1.462 4.057 2.53 6.2 3.586 1.994.974 3.746 2.3 5.39 3.79.998.906 2.036 1.759 3.06 2.638.283.244.566.515.89.812.525-1.218 1.01-2.354 1.496-3.505 1.172-2.733 2.938-5.034 5.121-7.023 1.739-1.584 3.504-3.113 5.243-4.683 2.359-2.138 3.828-4.79 4.3-7.957.175-1.123.094-2.3.134-3.438 0-.19 0-.392.068-.595.849 1.949 1.091 4.006 1.293 6.144.836-1.705 1.658-3.41 2.494-5.13.067.014.135.028.188.041-.094 1.746-.107 3.492-.31 5.224-.202 1.719-.593 3.41-.903 5.048.418-.65.903-1.394 1.47-2.247.04 1.665-.014 3.167-.715 4.588-.687 1.408-1.792 2.463-2.992 3.505.661.136 1.186-.094 1.698-.352.499-.243.957-.54 1.537-.88-.054.258-.081.434-.135.596-.728 1.976-1.86 3.681-3.558 4.94-1.038.785-2.143 1.475-3.167 2.26-.647.5-1.106.812-1.132 1.502.43-.149.849-.284 1.347-.447-.835 2.87-3.046 4.629-4.973 6.686.189.081.337.135.485.203.957.392 1.766.988 2.318 1.88.418.664.513 1.368.337 2.14-.054.23.081.54.23.743.458.704.525 1.421.12 2.152-.39.717-1.037 1.07-1.886 1.123.674-1.218.647-1.488-.27-2.138-.094.501-.188.975-.283 1.475-.606-.5-1.132-1.096-1.792-1.448-.674-.352-1.47-.446-2.278-.676.04.176.04.284.08.379.594 1.502 1.147 3.031 1.82 4.506.243.541.728 1.002 1.173 1.407.418.38.714.244.876-.31.108-.393.148-.8.216-1.192.067-.352.256-.5.498-.392.054.325.122.582.135.839.014.27.014.555-.04.812-.054.23-.203.447-.31.663.027.04.067.068.094.108.364-.243.741-.487 1.092-.744.175-.135.31-.311.471-.46.634-.582.944-.541 1.389.23-.243-.027-.459-.068-.688-.095-.04 1.002-1.091.988-1.523 1.665.513-.027.97-.068 1.429-.068.7 0 .984.325.849 1.042-.202-.487-.54-.42-.863-.284-.687.284-1.388.19-2.089.095-.768-.109-1.455 0-2.116.46-.43.311-.876.609-1.496.473-.134-.027-.377.42-.552.636-.283-.378-.27-.744.202-1.041.296-.19.647-.285.97-.42.203-.081.418-.149.593-.284.391-.298.391-.487.014-.785-.93-.758-1.86-1.502-2.79-2.26a.591.591 0 00-.256-.135c-1.227-.109-1.9-.92-2.413-1.909-.107-.216-.188-.514-.485-.325-.162.109-.337.434-.283.596.283 1.07.903 1.908 1.86 2.45.418-.068.499-1.097 1.092-.474-.054.23-.095.365-.121.5.161.028.336.095.498.082.27 0 .54-.054.809-.082l.04.177c-.188.094-.377.189-.633.324 1.294.068 1.294.068 1.348.758-.418-.406-.823-.081-1.227-.027-.916.108-1.55.541-1.887 1.448-.108.284-.404.487-.674.799.014.04.054.175.081.324-.58-.203-.714-.487-.431-1.001.216-.393.499-.758.755-1.137.229-.338.229-.622-.203-.812-.7-.311-1.293-.812-2.115-.893-.31-.027-.58-.447-.89-.717-.148.243-.35.528-.512.852-.472.961-1.267 1.543-2.265 1.814-3.14.866-6.105.379-8.868-1.34-.458-.27-.795-.69-1.253-1.096z" fill="#20113D"/><g filter="url(#filter2_d_1_528)"><path d="M80 28.335c-26.353 0-47.674 19.915-47.674 44.457C32.326 97.333 80 167.665 80 167.665s47.675-70.332 47.675-94.873c0-24.542-21.322-44.457-47.675-44.457z" stroke="#fff" stroke-width="3" stroke-miterlimit="10" stroke-linejoin="round"/></g></g><defs><filter id="filter0_d_1_528" x="0" y="0" width="160" height="204" filterUnits="userSpaceOnUse" color-interpolation-filters="sRGB"><feFlood flood-opacity="0" result="BackgroundImageFix"/><feColorMatrix in="SourceAlpha" values="0 0 0 0 0 0 0 0 0 0 0 0 0 0 0 0 0 0 127 0" result="hardAlpha"/><feOffset dy="4"/><feGaussianBlur stdDeviation="15"/><feColorMatrix values="0 0 0 0 0.960784 0 0 0 0 0.501961 0 0 0 0 0.129412 0 0 0 0.7 0"/><feBlend in2="BackgroundImageFix" result="effect1_dropShadow_1_528"/><feBlend in="SourceGraphic" in2="effect1_dropShadow_1_528" result="shape"/></filter><filter id="filter1_d_1_528" x="9.302" y="8.562" width="140.62" height="180.648" filterUnits="userSpaceOnUse" color-interpolation-filters="sRGB"><feFlood flood-opacity="0" result="BackgroundImageFix"/><feColorMatrix in="SourceAlpha" values="0 0 0 0 0 0 0 0 0 0 0 0 0 0 0 0 0 0 127 0" result="hardAlpha"/><feOffset dy="4"/><feGaussianBlur stdDeviation="15"/><feColorMatrix values="0 0 0 0 1 0 0 0 0 1 0 0 0 0 1 0 0 0 0.5 0"/><feBlend in2="BackgroundImageFix" result="effect1_dropShadow_1_528"/><feBlend in="SourceGraphic" in2="effect1_dropShadow_1_528" result="shape"/></filter><filter id="filter2_d_1_528" x=".826" y=".835" width="158.349" height="202.33" filterUnits="userSpaceOnUse" color-interpolation-filters="sRGB"><feFlood flood-opacity="0" result="BackgroundImageFix"/><feColorMatrix in="SourceAlpha" values="0 0 0 0 0 0 0 0 0 0 0 0 0 0 0 0 0 0 127 0" result="hardAlpha"/><feOffset dy="4"/><feGaussianBlur stdDeviation="15"/><feColorMatrix values="0 0 0 0 0 0 0 0 0 0 0 0 0 0 0 0 0 0 0.5 0"/><feBlend in2="BackgroundImageFix" result="effect1_dropShadow_1_528"/><feBlend in="SourceGraphic" in2="effect1_dropShadow_1_528" result="shape"/></filter></defs></svg>