<svg width="60" height="60" fill="none" xmlns="http://www.w3.org/2000/svg"><path fill-rule="evenodd" clip-rule="evenodd" d="M28.932 19.12c.182.08.347.195.487.342.14.146.25.319.326.51a1.636 1.636 0 010 1.204c-.076.19-.187.364-.326.51L23.39 28h17.15c.425 0 .832.21 1.132.586.3.375.469.884.469 1.414 0 .53-.169 1.04-.469 1.414-.3.375-.707.586-1.131.586H23.39l6.029 6.315c.281.295.44.695.44 1.112 0 .417-.159.817-.44 1.112-.282.295-.664.461-1.062.461s-.78-.166-1.061-.46L18.3 31.112c-.14-.146-.25-.32-.326-.51a1.636 1.636 0 010-1.205c.075-.19.186-.364.326-.51l8.996-9.426a1.48 1.48 0 01.486-.342 1.44 1.44 0 011.15 0z" fill="#20113D"/><rect x="-.5" y=".5" width="59" height="59" rx="4.5" transform="matrix(-1 0 0 1 59 0)" stroke="#20113D"/></svg>